<svg xmlns="http://www.w3.org/2000/svg" width="512" height="512" viewBox="0 0 512 512" role="img">
  <rect x="62" y="164" width="388" height="190" rx="18" fill="#475569" stroke="#475569" stroke-width="28" />
  <rect x="96" y="206" width="36" height="36" rx="4" fill="#DDEBFA" />
  <rect x="150" y="206" width="36" height="36" rx="4" fill="#DDEBFA" />
  <rect x="204" y="206" width="36" height="36" rx="4" fill="#DDEBFA" />
  <rect x="258" y="206" width="36" height="36" rx="4" fill="#DDEBFA" />
  <rect x="312" y="206" width="36" height="36" rx="4" fill="#DDEBFA" />
  <rect x="366" y="206" width="36" height="36" rx="4" fill="#DDEBFA" />
  <rect x="420" y="206" width="36" height="36" rx="4" fill="#DDEBFA" />
  <rect x="96" y="268" width="36" height="36" rx="4" fill="#DDEBFA" />
  <rect x="150" y="268" width="36" height="36" rx="4" fill="#DDEBFA" />
  <rect x="204" y="268" width="36" height="36" rx="4" fill="#DDEBFA" />
  <rect x="258" y="268" width="36" height="36" rx="4" fill="#DDEBFA" />
  <rect x="312" y="268" width="36" height="36" rx="4" fill="#DDEBFA" />
  <rect x="366" y="268" width="36" height="36" rx="4" fill="#DDEBFA" />
  <rect x="420" y="268" width="36" height="36" rx="4" fill="#DDEBFA" />
</svg>
